<svg xmlns="http://www.w3.org/2000/svg" xmlns:xlink="http://www.w3.org/1999/xlink" version="1.1" width="375pt" height="375pt" viewBox="0 0 375 375">
<defs>
<clipPath id="clip_1">
<path transform="matrix(.24,0,0,.24,0,0)" d="M0 0H1562.5V1593.75H0Z" fill-rule="evenodd"/>
</clipPath>
<clipPath id="clip_2">
<path transform="matrix(.24,0,0,.24,0,0)" d="M0 0H1562.5V1562.5H0Z" fill-rule="evenodd"/>
</clipPath>
<clipPath id="clip_3">
<path transform="matrix(.24,0,0,.24,0,0)" d="M302.753 524.216H615.253V842.966H302.753Z" fill-rule="evenodd"/>
</clipPath>
<clipPath id="clip_4">
<path transform="matrix(.24,0,0,.24,0,0)" d="M0 0H1562.5V1562.5H0Z" fill-rule="evenodd"/>
</clipPath>
<g id="font_5_60">
<path transform="matrix(.001,0,0,-.001,0,0)" d="M236 13C403 13 502-59 502-245V-811H374V-255C374-151 320-114 224-114 166-114 96-136 46-165L3-46C58-13 143 13 236 13Z"/>
</g>
<g id="font_5_71">
<path transform="matrix(.001,0,0,-.001,0,0)" d="M526-115 265-811H58V0H185V-710L453 0H599L867-708V0H995V-811H787L526-115Z"/>
</g>
<g id="font_5_4">
<path transform="matrix(.001,0,0,-.001,0,0)" d="M893 0 529-811H377L15 0H149L247-225H661L759 0H893ZM611-336H295L453-693 611-336Z"/>
</g>
<g id="font_5_3">
</g>
<g id="font_5_27">
<path transform="matrix(.001,0,0,-.001,0,0)" d="M674 0V-119H185V-359H635V-474H185V-692H671V-811H58V0H674Z"/>
</g>
<g id="font_5_236">
<path transform="matrix(.001,0,0,-.001,0,0)" d="M672-541C589-565 499-586 391-586 178-586 43-466 43-288V-286C43-107 170 13 384 13 436 13 498 4 543-7V220H672V-541ZM389-103C247-103 173-177 173-286V-288C173-396 250-471 391-471 444-471 498-464 543-455V-123C502-113 441-103 389-103Z"/>
</g>
<g id="font_5_253">
<path transform="matrix(.001,0,0,-.001,0,0)" d="M356 11C438 11 558-4 660-22V-565H531V-116C475-107 407-99 354-99 241-99 187-134 187-230V-565H58V-217C58-44 167 11 356 11Z"/>
</g>
<g id="font_5_186">
<path transform="matrix(.001,0,0,-.001,0,0)" d="M122-642C161-642 191-662 191-704 191-740 163-764 122-764 81-764 54-740 54-704 54-662 83-642 122-642ZM187 0V-565H58V0H187Z"/>
</g>
<g id="font_5_234">
<path transform="matrix(.001,0,0,-.001,0,0)" d="M187 220V-7C232 4 294 13 346 13 560 13 687-107 687-286V-288C687-466 551-586 338-586 230-586 141-565 58-541V220H187ZM341-103C288-103 228-113 187-123V-455C232-464 285-471 338-471 480-471 557-396 557-288V-286C557-177 483-103 341-103Z"/>
</g>
<g id="font_5_142">
<path transform="matrix(.001,0,0,-.001,0,0)" d="M363-584C271-584 177-567 112-547L85-430C161-456 255-474 338-474 469-474 520-436 520-355V-333C451-341 390-344 330-344 132-344 41-281 41-168V-167C41-40 140 15 345 15 435 15 550 4 650-12V-368C650-523 553-584 363-584ZM174-170C174-230 235-249 365-249 414-249 473-246 521-239V-102C476-96 420-92 365-92 231-92 174-115 174-169V-170Z"/>
</g>
<g id="font_5_214">
<path transform="matrix(.001,0,0,-.001,0,0)" d="M187 0V-454C237-463 295-471 346-471 451-471 506-437 506-340V0H635V-340C635-426 674-471 793-471 912-471 951-426 951-340V0H1080V-355C1080-521 993-586 806-586 690-586 610-556 572-483 535-561 453-586 344-586 266-586 159-572 58-553V0H187Z"/>
</g>
<g id="font_5_165">
<path transform="matrix(.001,0,0,-.001,0,0)" d="M690-270C690-474 557-585 367-585 166-585 42-457 42-287V-285C42-98 180 13 382 13 509 13 604-25 663-60L606-161C555-130 479-100 386-100 269-100 193-161 177-250H690V-270ZM366-478C472-478 541-421 556-343H179C199-427 269-478 366-478Z"/>
</g>
<g id="font_5_215">
<path transform="matrix(.001,0,0,-.001,0,0)" d="M187 0V-454C242-463 307-470 359-470 472-470 527-436 527-340V0H656V-358C656-531 553-586 364-586 282-586 159-571 58-553V0H187Z"/>
</g>
<g id="font_5_248">
<path transform="matrix(.001,0,0,-.001,0,0)" d="M547 0V-120H387C313-120 274-145 274-223V-446H546V-565H274V-746H145V-565H25V-446H145V-183C145-51 202 0 333 0H547Z"/>
</g>
<g id="font_5_221">
<path transform="matrix(.001,0,0,-.001,0,0)" d="M395 15C608 15 747-109 747-286V-288C747-464 608-586 395-586 182-586 43-464 43-288V-286C43-109 182 15 395 15ZM395-101C259-101 173-180 173-286V-288C173-395 258-470 395-470 532-470 617-395 617-288V-286C617-180 531-101 395-101Z"/>
</g>
<g id="font_5_241">
<path transform="matrix(.001,0,0,-.001,0,0)" d="M333 13C523 13 619-40 619-160 619-258 557-305 415-334L308-352C219-370 187-381 187-420 187-460 233-476 324-476 390-476 471-466 552-439L596-539C511-569 411-585 322-585 144-585 55-525 55-421 55-321 113-274 259-247L367-230C466-211 489-197 489-158 489-105 426-95 325-95 256-95 153-110 76-140L38-35C128-3 235 13 333 13Z"/>
</g>
<g id="font_5_166">
<path transform="matrix(.001,0,0,-.001,0,0)" d="M405-791 312-641H409L570-791H405ZM690-270C690-474 557-585 367-585 166-585 42-457 42-287V-285C42-98 180 13 382 13 509 13 604-25 663-60L606-161C555-130 479-100 386-100 269-100 193-161 177-250H690V-270ZM366-478C472-478 541-421 556-343H179C199-427 269-478 366-478Z"/>
</g>
<g id="font_5_161">
<path transform="matrix(.001,0,0,-.001,0,0)" d="M391 15C499 15 583-2 672-31V-811H543V-566C498-577 436-586 384-586 170-586 43-466 43-287V-285C43-106 178 15 391 15ZM391-101C250-101 173-177 173-285V-287C173-395 247-470 389-470 441-470 502-460 543-450V-117C498-108 444-101 391-101Z"/>
</g>
<g id="font_5_155">
<path transform="matrix(.001,0,0,-.001,0,0)" d="M380 13C463 13 558-7 615-36L564-137C517-116 454-100 387-100 250-100 174-173 174-287V-288C174-400 250-473 387-473 456-473 518-456 563-434L614-536C554-564 467-585 380-585 166-585 42-463 42-288V-287C42-110 166 13 380 13Z"/>
</g>
<clipPath id="clip_6">
<path transform="matrix(1,0,0,-1,0,383.03999)" d="M79.3636 98.211H168.74V117.131H79.3636Z" fill-rule="evenodd"/>
</clipPath>
<clipPath id="clip_7">
<path transform="matrix(1,0,0,-1,0,383.03999)" d="M79.3636 98.211H168.74V117.131H79.3636Z" fill-rule="evenodd"/>
</clipPath>
<clipPath id="clip_8">
<path transform="matrix(1,0,0,-1,79.3636,274.22898)" d="M0-10.6H89.376V8.32001H0Z" fill-rule="evenodd"/>
</clipPath>
<path id="font_9_38" d="M.5878906 .25195313 .6826172 .22802735C.66276046 .15006511 .6270345 .09061686 .57543948 .049682619 .5238444 .008748372 .46077476-.01171875 .38623048-.01171875 .30908204-.01171875 .24633789 .0039876305 .19799805 .03540039 .1496582 .06681315 .11287435 .11230469 .087646488 .171875 .06241862 .23144531 .049804689 .29541017 .049804689 .36376954 .049804689 .4383138 .06404623 .5033366 .0925293 .5588379 .12101237 .6143392 .16153972 .65649417 .21411133 .68530276 .26668296 .7141113 .32454429 .7285156 .3876953 .7285156 .4593099 .7285156 .51953127 .71028646 .5683594 .6738281 .6171875 .6373698 .6512044 .5861003 .67041018 .52001956L.57714846 .49804688C.5605469 .55030319 .5364583 .5883484 .5048828 .6121826 .47330729 .63602706 .43359376 .6479492 .3857422 .6479492 .33072917 .6479492 .28474937 .6347402 .24780274 .60832217 .21085613 .58191427 .18489583 .5464528 .16992188 .50193789 .15494792 .45743308 .14746094 .4115448 .14746094 .36427308 .14746094 .30329896 .15633138 .25006614 .17407227 .20457459 .19181316 .15908306 .21940105 .12508647 .25683595 .10258484 .29427085 .080093387 .3347982 .068847659 .37841798 .068847659 .43147788 .068847659 .47639976 .084228519 .5131836 .114990238 .54996749 .14575196 .5748698 .19140625 .5878906 .25195313Z"/>
<path id="font_9_82" d="M.033203126 .25927735C.033203126 .355306 .059895833 .42643229 .11328125 .47265626 .15787761 .5110677 .21223958 .53027346 .2763672 .53027346 .34765626 .53027346 .40592448 .5069173 .45117188 .46020509 .49641929 .41349284 .51904299 .34895835 .51904299 .26660157 .51904299 .1998698 .5090332 .14737956 .48901368 .10913086 .46899415 .070882167 .43986003 .041178388 .40161134 .020019532 .36336265-.0011393229 .3216146-.01171875 .2763672-.01171875 .20377605-.01171875 .1451009 .011555989 .1003418 .05810547 .055582685 .104654949 .033203126 .17171224 .033203126 .25927735M.123535159 .25952149C.123535159 .19335938 .13802083 .14381917 .16699219 .11090088 .19596355 .07798258 .23242188 .061523439 .2763672 .061523439 .31998698 .061523439 .35628257 .078063968 .3852539 .11114502 .41422526 .14422608 .42871095 .19465637 .42871095 .2624359 .42871095 .32632957 .4141439 .3747355 .38500978 .4076538 .35587565 .4405721 .31966148 .45703126 .2763672 .45703126 .23242188 .45703126 .19596355 .44065348 .16699219 .40789796 .13802083 .37514244 .123535159 .3256836 .123535159 .25952149Z"/>
<path id="font_9_85" d="M.064941409 0V.5185547H.14404297V.4404297C.16422527 .4770101 .18286133 .50112918 .19995117 .51278689 .21704102 .5244446 .23583985 .53027346 .25634767 .53027346 .28597007 .53027346 .31608073 .520874 .3466797 .5020752L.31640626 .42089845C.29492188 .43359376 .2734375 .4399414 .25195313 .4399414 .23274739 .4399414 .2154948 .43415324 .20019531 .4225769 .18489583 .41101075 .17399089 .3949636 .16748047 .37443543 .15771485 .3431549 .15283203 .3089396 .15283203 .27178956V0H.064941409Z"/>
<path id="font_9_3" d="M0 0Z"/>
<path id="font_9_71" d="M.40234376 0V.06542969C.36946617 .0139973959 .3211263-.01171875 .25732423-.01171875 .21598308-.01171875 .17797852-.00032552085 .14331055 .022460938 .10864258 .045247396 .08178711 .077067058 .06274414 .11791992 .043701173 .15877278 .034179689 .20572917 .034179689 .25878907 .034179689 .31054688 .04280599 .35750328 .060058595 .3996582 .077311199 .44181315 .1031901 .4741211 .13769531 .49658204 .17220052 .51904299 .21077474 .53027346 .25341798 .53027346 .28466798 .53027346 .3125 .52368167 .33691407 .51049807 .36132813 .49731446 .3811849 .48014323 .39648438 .45898438V.7158203H.48388673V0H.40234376M.12451172 .2590332C.12451172 .1928711 .13850911 .14341228 .1665039 .11065674 .1944987 .07790121 .22753906 .061523439 .265625 .061523439 .30403648 .061523439 .33666993 .077168788 .3635254 .10845947 .39038087 .13976033 .4038086 .18752034 .4038086 .2517395 .4038086 .32243858 .39013673 .3743286 .36279298 .40740968 .33544923 .44049073 .3017578 .45703126 .26171876 .45703126 .22265625 .45703126 .19002278 .4411367 .16381836 .40934754 .13761394 .37756858 .12451172 .32746379 .12451172 .2590332Z"/>
<path id="font_9_79" d="M.063964847 0V.7158203H.15185547V0H.063964847Z"/>
<path id="font_9_74" d="M.049804689-.04296875 .1352539-.055664064C.13883464-.08203125 .14876302-.10123698 .16503906-.11328125 .18684896-.1295573 .21663411-.13769531 .25439454-.13769531 .29508464-.13769531 .3264974-.12953694 .3486328-.113220218 .37076823-.09691366 .3857422-.07407633 .3935547-.044708253 .39811198-.026774088 .40022788 .010904948 .39990235 .06832886 .36149089 .022776286 .3136393 0 .25634767 0 .1850586 0 .12988281 .025716147 .09082031 .07714844 .051757814 .12858074 .032226564 .19026692 .032226564 .26220704 .032226564 .3116862 .041178388 .35734049 .05908203 .39916993 .07698568 .44099937 .10294596 .47330729 .13696289 .49609376 .17097982 .5188802 .2109375 .53027346 .25683595 .53027346 .31803385 .53027346 .3684896 .5053711 .40820313 .4555664V.5185547H.4892578V.070007327C.4892578-.010772705 .48103843-.06801859 .4645996-.10173035 .4481608-.1354421 .42211915-.16206868 .3864746-.1816101 .35083009-.2011617 .30696617-.2109375 .2548828-.2109375 .19303386-.2109375 .1430664-.19698079 .10498047-.16906739 .06689453-.14115398 .048502607-.099121097 .049804689-.04296875M.122558597 .26853944C.122558597 .20067851 .1360677 .15116374 .16308594 .11999512 .19010417 .0888265 .22395833 .07324219 .26464845 .07324219 .30501304 .07324219 .3388672 .08874512 .36621095 .11975098 .3935547 .15075684 .40722657 .19938152 .40722657 .265625 .40722657 .3289388 .3931478 .3766683 .36499024 .40881349 .33683268 .44095866 .30289714 .45703126 .2631836 .45703126 .2241211 .45703126 .19091797 .4412028 .16357422 .4095459 .13623047 .377889 .122558597 .33088685 .122558597 .26853944Z"/>
<path id="font_9_29" d="M.09033203 .41796876V.5185547H.19042969V.41796876H.09033203M.09033203 0V.10058594H.19042969V0H.09033203Z"/>
<path id="font_9_36" d="M-.0014648438 0 .2734375 .7158203H.37548829L.66845706 0H.5605469L.47705079 .21582031H.17773438L.099121097 0H-.0014648438M.20507813 .2939453H.4477539L.37304688 .4921875C.3502604 .5524089 .33333335 .601888 .32226563 .640625 .31315104 .59472659 .30029298 .5491536 .2836914 .50390627L.20507813 .2939453Z"/>
<path id="font_9_93" d="M.01953125 0V.07128906L.34960938 .4501953C.31217448 .4482422 .27913413 .44726563 .25048829 .44726563H.0390625V.5185547H.46289063V.46044923L.1821289 .13134766 .12792969 .07128906C.1673177 .07421875 .20426433 .075683597 .23876953 .075683597H.47851563V0H.01953125Z"/>
<path id="font_9_88" d="M.40576173 0V.076171878C.36539714 .017578125 .31054688-.01171875 .24121094-.01171875 .21061199-.01171875 .18204753-.005859375 .15551758 .005859375 .12898763 .017578125 .10929362 .03230794 .09643555 .050048829 .08357748 .06778971 .07454427 .08951823 .06933594 .115234378 .06575521 .13248699 .063964847 .15983074 .063964847 .19726563V.5185547H.15185547V.23095703C.15185547 .1850586 .15364583 .15413411 .15722656 .1381836 .16276042 .11507162 .17447917 .09692383 .19238281 .083740238 .21028646 .07055664 .23242188 .063964847 .25878907 .063964847 .28515626 .063964847 .30989585 .0707194 .3330078 .084228519 .35611979 .09773763 .3724772 .116129558 .38208009 .1394043 .39168296 .16267903 .39648438 .19645183 .39648438 .24072266V.5185547H.484375V0H.40576173Z"/>
<path id="font_9_70" d="M.40429688 .19042969 .49072267 .17919922C.48128257 .11947632 .45711265 .07272339 .4182129 .03894043 .37931315 .005167643 .33154298-.01171875 .27490235-.01171875 .2039388-.01171875 .14689128 .011474609 .103759769 .057861329 .060628255 .10424805 .0390625 .17073567 .0390625 .25732423 .0390625 .3133138 .048339845 .3623047 .06689453 .40429688 .08544922 .44628907 .11368815 .4777832 .15161133 .4987793 .1895345 .5197754 .23079427 .53027346 .27539063 .53027346 .33170573 .53027346 .37776695 .51598617 .41357423 .4874115 .4493815 .45884706 .47233073 .4182841 .48242188 .36572267L.39697267 .35253907C.38883464 .38720704 .37443034 .4132894 .35375978 .43078614 .3330892 .44828288 .30810548 .45703126 .2788086 .45703126 .23453777 .45703126 .1985677 .4412384 .17089844 .4096527 .14322917 .37807719 .12939453 .32811485 .12939453 .25976563 .12939453 .19043987 .14274089 .1400655 .1694336 .10864258 .1961263 .07722982 .23095703 .061523439 .27392579 .061523439 .308431 .061523439 .3372396 .07206217 .36035157 .09313965 .38346354 .114217128 .39811198 .14664714 .40429688 .19042969Z"/>
<path id="font_9_69" d="M.14697266 0H.06542969V.7158203H.15332031V.45950318C.19042969 .50668337 .23779297 .53027346 .29541017 .53027346 .3273112 .53027346 .35750328 .5238444 .38598634 .5109863 .4144694 .49812828 .4379069 .48006187 .45629884 .4567871 .47469078 .43351237 .48909507 .4054362 .49951173 .3725586 .5099284 .339681 .5151367 .30452476 .5151367 .26708985 .5151367 .17822266 .49316407 .10953776 .44921876 .061035158 .40527345 .012532552 .35253907-.01171875 .29101563-.01171875 .2298177-.01171875 .18180339 .014160156 .14697266 .06591797V0M.1459961 .26316834C.1459961 .20129903 .15445964 .15659587 .17138672 .12905884 .19905599 .08403524 .23649089 .061523439 .2836914 .061523439 .32210288 .061523439 .355306 .078125 .38330079 .111328128 .41129557 .14453125 .42529298 .19401042 .42529298 .25976563 .42529298 .32713828 .41186524 .37685649 .38500978 .4089203 .3581543 .44099427 .3256836 .45703126 .28759767 .45703126 .2491862 .45703126 .21598308 .4404297 .18798828 .40722657 .15999349 .37402345 .1459961 .32600404 .1459961 .26316834Z"/>
<path id="font_9_68" d="M.40429688 .06402588C.37174479 .03633626 .34041343 .016789755 .31030274 .0053863527 .28019206-.0060170495 .24788411-.01171875 .2133789-.01171875 .15641277-.01171875 .11263021 .0022074383 .08203125 .030059815 .051432294 .05791219 .036132814 .09350077 .036132814 .13682556 .036132814 .16222637 .04191081 .18542989 .053466798 .20643616 .06502279 .22745259 .08015951 .24431356 .09887695 .25701905 .1175944 .26972453 .13867188 .2793325 .16210938 .2858429 .17936199 .29041038 .20540364 .29480998 .24023438 .29904176 .3111979 .30744425 .363444 .3174642 .39697267 .32910157 .3972982 .34109498 .39746095 .3487142 .39746095 .35195924 .39746095 .38763429 .38916017 .4127655 .3725586 .4273529 .35009767 .44713847 .31673179 .45703126 .27246095 .45703126 .2311198 .45703126 .20060222 .44978843 .1809082 .43530274 .16121419 .42081706 .14664714 .39518229 .13720703 .35839845L.05126953 .3701172C.05908203 .40701295 .0719401 .43680827 .08984375 .45950318 .1077474 .4821981 .1336263 .4996643 .16748047 .51190188 .20133464 .5241496 .24055989 .53027346 .28515626 .53027346 .3294271 .53027346 .36539714 .5250651 .3930664 .51464846 .4207357 .50423178 .44108073 .49112956 .45410157 .4753418 .4671224 .45955406 .47623698 .43961589 .4814453 .41552735 .484375 .40055339 .48583985 .37353517 .48583985 .33447267V.21728516C.48583985 .13557942 .48771159 .08390299 .49145509 .06225586 .49519859 .040608724 .5026042 .019856772 .5136719 0H.421875C.4127604 .018249512 .40690104 .039591474 .40429688 .06402588M.39697267 .2607422C.36507163 .24760945 .31722007 .2364502 .25341798 .2272644 .21728516 .22203572 .19173177 .21615093 .17675781 .20960999 .16178386 .20307923 .15022786 .19351705 .14208985 .18092346 .13395183 .16834004 .12988281 .15436809 .12988281 .13900757 .12988281 .115478519 .13875325 .09586588 .15649414 .08016968 .17423503 .06448364 .20019531 .056640626 .234375 .056640626 .26822917 .056640626 .29833985 .064081829 .32470704 .07896423 .35107423 .09384664 .37044273 .11420695 .3828125 .14004517 .3922526 .16000366 .39697267 .18944295 .39697267 .22836304V.2607422Z"/>
<path id="font_9_87" d="M.2578125 .07763672 .2705078 0C.24576824-.0045572917 .22363281-.0068359377 .20410156-.0068359377 .17220052-.0068359377 .14746094-.0017903646 .12988281 .008300781 .11230469 .018391928 .0999349 .031656904 .09277344 .048095704 .08561198 .06453451 .08203125 .099121097 .08203125 .15185547V.4501953H.017578125V.5185547H.08203125V.6473236L.1694336 .7001953V.5185547H.2578125V.4501953H.1694336V.14697266C.1694336 .121907558 .17097982 .10579427 .17407227 .09863281 .17716472 .09147135 .18221028 .08577474 .18920899 .08154297 .19620769 .077311199 .20621746 .07519531 .21923828 .07519531 .2290039 .07519531 .24186199 .07600912 .2578125 .07763672Z"/>
<path id="font_9_17" d="M.09082031 0V.10058594H.19091797V0H.09082031Z"/>
<path id="font_9_6" d="M.05029297-.01171875 .09277344 .1953125H.010253906V.2685547H.107421878L.14355469 .4453125H.010253906V.5185547H.15820313L.2006836 .72753909H.27392579L.23144531 .5185547H.3852539L.42773438 .72753909H.50146487L.45898438 .5185547H.54345706V.4453125H.44433595L.40771485 .2685547H.54345706V.1953125H.3930664L.35058595-.01171875H.27734376L.31933595 .1953125H.16601563L.123535159-.01171875H.05029297M.18066406 .2685547H.33398438L.37060548 .4453125H.21679688L.18066406 .2685547Z"/>
<path id="font_9_19" d="M.041503908 .35327149C.041503908 .43784587 .05021159 .50591537 .06762695 .55747988 .08504232 .6090444 .11092123 .6488139 .14526367 .67678835 .17960613 .70476278 .22281902 .71875 .27490235 .71875 .3133138 .71875 .34700523 .711024 .37597657 .6955719 .4049479 .6801198 .4288737 .6578369 .4477539 .62872317 .46663413 .5996094 .4814453 .56414797 .4921875 .52233889 .5029297 .48053996 .5083008 .42418418 .5083008 .35327149 .5083008 .26934815 .49967448 .2016042 .48242188 .15003968 .46516929 .098475139 .43937174 .058624269 .4050293 .03048706 .37068687 .0023498536 .3273112-.01171875 .27490235-.01171875 .20589192-.01171875 .1516927 .013005574 .11230469 .062454225 .065104167 .12198385 .041503908 .21892293 .041503908 .35327149M.13183594 .35351563C.13183594 .23639934 .14558919 .15845235 .1730957 .11967468 .20060222 .08090719 .23453777 .061523439 .27490235 .061523439 .31526695 .061523439 .34920249 .08098856 .37670899 .11991882 .40421549 .15884908 .41796876 .23671468 .41796876 .35351563 .41796876 .47095744 .40421549 .5489807 .37670899 .58758547 .34920249 .6262004 .3149414 .6455078 .27392579 .6455078 .2335612 .6455078 .20133464 .62847396 .1772461 .5944061 .14697266 .5509288 .13183594 .47063194 .13183594 .35351563Z"/>
<path id="font_9_23" d="M.3232422 0V.17138672H.0126953129V.25195313L.33935548 .7158203H.4111328V.25195313H.5078125V.17138672H.4111328V0H.3232422M.3232422 .25195313V.57470706L.099121097 .25195313H.3232422Z"/>
</defs>
<g clip-path="url(#clip_1)">
<path transform="matrix(.75,0,0,.75,0,0)" d="M0 0H500V510H0Z" fill="#ffffff"/>
<path transform="matrix(.75,0,0,.75,0,0)" d="M0 0H500V500H0Z" fill="#ffffff"/>
</g>
<g clip-path="url(#clip_2)">
<path transform="matrix(.75,0,0,.75,0,0)" d="M0 0H500V500H0Z" fill="#ffffff"/>
</g>
<g clip-path="url(#clip_3)">
<path transform="matrix(3.3175913,0,0,3.3345538,118.593158,164.06143)" d="M0 0C0 .179-.017 .357-.052 .533-.087 .708-.139 .879-.208 1.045-.276 1.21-.36 1.368-.46 1.517-.56 1.666-.673 1.804-.8 1.93-.926 2.057-1.064 2.17-1.213 2.27-1.362 2.37-1.52 2.454-1.685 2.522-1.851 2.591-2.022 2.643-2.197 2.678-2.373 2.713-2.551 2.73-2.73 2.73-2.909 2.73-3.087 2.713-3.263 2.678-3.438 2.643-3.609 2.591-3.775 2.522-3.94 2.454-4.098 2.37-4.247 2.27-4.396 2.17-4.534 2.057-4.66 1.93-4.787 1.804-4.9 1.666-5 1.517-5.099 1.368-5.184 1.21-5.252 1.045-5.321 .879-5.373 .708-5.408 .533-5.443 .357-5.46 .179-5.46 0-5.46-.179-5.443-.357-5.408-.533-5.373-.708-5.321-.879-5.252-1.045-5.184-1.21-5.099-1.368-5-1.517-4.9-1.666-4.787-1.804-4.66-1.93-4.534-2.057-4.396-2.17-4.247-2.27-4.098-2.369-3.94-2.454-3.775-2.522-3.609-2.591-3.438-2.643-3.263-2.678-3.087-2.713-2.909-2.73-2.73-2.73-2.551-2.73-2.373-2.713-2.197-2.678-2.022-2.643-1.851-2.591-1.685-2.522-1.52-2.454-1.362-2.369-1.213-2.27-1.064-2.17-.926-2.057-.8-1.93-.673-1.804-.56-1.666-.46-1.517-.36-1.368-.276-1.21-.208-1.045-.139-.879-.087-.708-.052-.533-.017-.357 0-.179 0 0Z" fill="#004aad"/>
<path transform="matrix(3.3175913,0,0,3.3345538,109.53613,125.834117)" d="M0 0C-5.342 0-9.83 3.654-11.103 8.598-11.115 8.643-11.121 8.688-11.122 8.734-11.122 9.034-10.878 9.28-10.576 9.28H-5.953C-5.846 9.28-5.748 9.252-5.658 9.193-5.568 9.135-5.502 9.058-5.458 8.96-5.458 8.96-5.451 8.947-5.448 8.94-4.495 6.884-2.414 5.457 .002 5.457 3.319 5.457 6.008 8.145 6.008 11.462 6.008 14.779 3.32 17.467 .003 17.467-2.412 17.467-4.493 16.04-5.447 13.984-5.45 13.977-5.457 13.964-5.457 13.964-5.545 13.77-5.739 13.644-5.952 13.644H-10.575C-10.877 13.644-11.121 13.888-11.121 14.19-11.12 14.236-11.114 14.281-11.102 14.326-9.829 19.27-5.34 22.924 .001 22.924 6.333 22.923 11.475 17.791 11.475 11.46 11.475 5.129 6.342-.004 .011-.004L0 0Z" fill="#004aad"/>
</g>
<g clip-path="url(#clip_4)">
<g id="layer_1" data-name="P">
</g>
<g id="layer_1" data-name="P">
</g>
<g id="layer_1" data-name="P">
</g>
<g id="layer_1" data-name="P">
</g>
<use data-text="J" xlink:href="#font_5_60" transform="matrix(35.307645,0,0,-35.307645,157.4603,164.11038)" fill="#004aad"/>
<use data-text="M" xlink:href="#font_5_71" transform="matrix(35.307645,0,0,-35.307645,177.23258,164.11038)" fill="#004aad"/>
<use data-text="A" xlink:href="#font_5_4" transform="matrix(35.307645,0,0,-35.307645,214.37622,164.11038)" fill="#004aad"/>
<use data-text=" " xlink:href="#font_5_3" transform="matrix(35.307645,0,0,-35.307645,246.43556,164.11038)" fill="#004aad"/>
<use data-text="E" xlink:href="#font_5_27" transform="matrix(14.3925,0,0,-14.3925,157.4603,180.34229)" fill="#004aad"/>
<use data-text="q" xlink:href="#font_5_236" transform="matrix(14.3925,0,0,-14.3925,167.73654,180.34229)" fill="#004aad"/>
<use data-text="u" xlink:href="#font_5_253" transform="matrix(14.3925,0,0,-14.3925,178.24308,180.34229)" fill="#004aad"/>
<use data-text="i" xlink:href="#font_5_186" transform="matrix(14.3925,0,0,-14.3925,188.5625,180.34229)" fill="#004aad"/>
<use data-text="p" xlink:href="#font_5_234" transform="matrix(14.3925,0,0,-14.3925,192.07427,180.34229)" fill="#004aad"/>
<use data-text="a" xlink:href="#font_5_142" transform="matrix(14.3925,0,0,-14.3925,202.56639,180.34229)" fill="#004aad"/>
<use data-text="m" xlink:href="#font_5_214" transform="matrix(14.3925,0,0,-14.3925,212.74188,180.34229)" fill="#004aad"/>
<use data-text="e" xlink:href="#font_5_165" transform="matrix(14.3925,0,0,-14.3925,229.10616,180.34229)" fill="#004aad"/>
<use data-text="n" xlink:href="#font_5_215" transform="matrix(14.3925,0,0,-14.3925,239.65586,180.34229)" fill="#004aad"/>
<use data-text="t" xlink:href="#font_5_248" transform="matrix(14.3925,0,0,-14.3925,249.91771,180.34229)" fill="#004aad"/>
<use data-text="o" xlink:href="#font_5_221" transform="matrix(14.3925,0,0,-14.3925,258.40928,180.34229)" fill="#004aad"/>
<use data-text="s" xlink:href="#font_5_241" transform="matrix(14.3925,0,0,-14.3925,269.77937,180.34229)" fill="#004aad"/>
<use data-text="M" xlink:href="#font_5_71" transform="matrix(14.3925,0,0,-14.3925,157.4603,197.59229)" fill="#004aad"/>
<use data-text="&#x00e9;" xlink:href="#font_5_166" transform="matrix(14.3925,0,0,-14.3925,172.60121,197.59229)" fill="#004aad"/>
<use data-text="d" xlink:href="#font_5_161" transform="matrix(14.3925,0,0,-14.3925,183.15091,197.59229)" fill="#004aad"/>
<use data-text="i" xlink:href="#font_5_186" transform="matrix(14.3925,0,0,-14.3925,193.64304,197.59229)" fill="#004aad"/>
<use data-text="c" xlink:href="#font_5_155" transform="matrix(14.3925,0,0,-14.3925,197.1548,197.59229)" fill="#004aad"/>
<use data-text="o" xlink:href="#font_5_221" transform="matrix(14.3925,0,0,-14.3925,206.30843,197.59229)" fill="#004aad"/>
<use data-text="s" xlink:href="#font_5_241" transform="matrix(14.3925,0,0,-14.3925,217.6785,197.59229)" fill="#004aad"/>
<g id="layer_1" data-name="ADBE_FillSign">
</g>
<g clip-path="url(#clip_6)">
<g clip-path="url(#clip_7)">
<g clip-path="url(#clip_8)">
<g id="layer_2" data-name="P">
</g>
<g id="layer_2" data-name="P">
</g>
<use data-text="C" xlink:href="#font_9_38" transform="matrix(8,0,0,-8,79.3636,274.22898)"/>
<use data-text="o" xlink:href="#font_9_82" transform="matrix(8,0,0,-8,85.1396,274.22898)"/>
<use data-text="r" xlink:href="#font_9_85" transform="matrix(8,0,0,-8,89.5876,274.22898)"/>
<use data-text=" " xlink:href="#font_9_3" transform="matrix(8,0,0,-8,92.2516,274.22898)"/>
<use data-text="d" xlink:href="#font_9_71" transform="matrix(8,0,0,-8,94.4756,274.22898)"/>
<use data-text="o" xlink:href="#font_9_82" transform="matrix(8,0,0,-8,98.9236,274.22898)"/>
<use data-text=" " xlink:href="#font_9_3" transform="matrix(8,0,0,-8,103.371608,274.22898)"/>
<use data-text="l" xlink:href="#font_9_79" transform="matrix(8,0,0,-8,105.595607,274.22898)"/>
<use data-text="o" xlink:href="#font_9_82" transform="matrix(8,0,0,-8,107.371608,274.22898)"/>
<use data-text="g" xlink:href="#font_9_74" transform="matrix(8,0,0,-8,111.81961,274.22898)"/>
<use data-text="o" xlink:href="#font_9_82" transform="matrix(8,0,0,-8,116.26761,274.22898)"/>
<use data-text=":" xlink:href="#font_9_29" transform="matrix(8,0,0,-8,120.71561,274.22898)"/>
<use data-text=" " xlink:href="#font_9_3" transform="matrix(8,0,0,-8,122.939609,274.22898)"/>
<use data-text="A" xlink:href="#font_9_36" transform="matrix(8,0,0,-8,125.163608,274.22898)"/>
<use data-text="z" xlink:href="#font_9_93" transform="matrix(8,0,0,-8,130.4996,274.22898)"/>
<use data-text="u" xlink:href="#font_9_88" transform="matrix(8,0,0,-8,134.4996,274.22898)"/>
<use data-text="l" xlink:href="#font_9_79" transform="matrix(8,0,0,-8,138.94762,274.22898)"/>
<use data-text=" " xlink:href="#font_9_3" transform="matrix(8,0,0,-8,140.72362,274.22898)"/>
<use data-text="c" xlink:href="#font_9_70" transform="matrix(8,0,0,-8,142.94762,274.22898)"/>
<use data-text="o" xlink:href="#font_9_82" transform="matrix(8,0,0,-8,146.94762,274.22898)"/>
<use data-text="b" xlink:href="#font_9_69" transform="matrix(8,0,0,-8,151.39562,274.22898)"/>
<use data-text="a" xlink:href="#font_9_68" transform="matrix(8,0,0,-8,155.84362,274.22898)"/>
<use data-text="l" xlink:href="#font_9_79" transform="matrix(8,0,0,-8,160.29161,274.22898)"/>
<use data-text="t" xlink:href="#font_9_87" transform="matrix(8,0,0,-8,162.06761,274.22898)"/>
<use data-text="o" xlink:href="#font_9_82" transform="matrix(8,0,0,-8,164.29161,274.22898)"/>
<use data-text="C" xlink:href="#font_9_38" transform="matrix(8,0,0,-8,79.3636,282.22898)"/>
<use data-text="o" xlink:href="#font_9_82" transform="matrix(8,0,0,-8,85.1396,282.22898)"/>
<use data-text="d" xlink:href="#font_9_71" transform="matrix(8,0,0,-8,89.5876,282.22898)"/>
<use data-text="." xlink:href="#font_9_17" transform="matrix(8,0,0,-8,94.0356,282.22898)"/>
<use data-text=" " xlink:href="#font_9_3" transform="matrix(8,0,0,-8,96.259609,282.22898)"/>
<use data-text="C" xlink:href="#font_9_38" transform="matrix(8,0,0,-8,98.483608,282.22898)"/>
<use data-text="o" xlink:href="#font_9_82" transform="matrix(8,0,0,-8,104.259609,282.22898)"/>
<use data-text="r" xlink:href="#font_9_85" transform="matrix(8,0,0,-8,108.7076,282.22898)"/>
<use data-text=":" xlink:href="#font_9_29" transform="matrix(8,0,0,-8,111.371608,282.22898)"/>
<use data-text=" " xlink:href="#font_9_3" transform="matrix(8,0,0,-8,113.595607,282.22898)"/>
<use data-text="#" xlink:href="#font_9_6" transform="matrix(8,0,0,-8,115.8196,282.22898)"/>
<use data-text="0" xlink:href="#font_9_19" transform="matrix(8,0,0,-8,120.26761,282.22898)"/>
<use data-text="0" xlink:href="#font_9_19" transform="matrix(8,0,0,-8,124.71561,282.22898)"/>
<use data-text="4" xlink:href="#font_9_23" transform="matrix(8,0,0,-8,129.1636,282.22898)"/>
<use data-text="a" xlink:href="#font_9_68" transform="matrix(8,0,0,-8,133.6116,282.22898)"/>
<use data-text="a" xlink:href="#font_9_68" transform="matrix(8,0,0,-8,138.05962,282.22898)"/>
<use data-text="d" xlink:href="#font_9_71" transform="matrix(8,0,0,-8,142.50762,282.22898)"/>
</g>
</g>
</g>
</g>
</svg>
