<?xml version="1.0" encoding="UTF-8"?>
<svg id="Layer_1" xmlns="http://www.w3.org/2000/svg" version="1.1" xmlns:xlink="http://www.w3.org/1999/xlink" viewBox="0 0 239 106">
  <!-- Generator: Adobe Illustrator 29.7.1, SVG Export Plug-In . SVG Version: 2.1.1 Build 8)  -->
  <defs>
    <style>
      .st0 {
        fill: none;
      }

      .st1 {
        fill: #194fa2;
      }

      .st2 {
        clip-path: url(#clippath);
      }
    </style>
    <clipPath id="clippath">
      <rect class="st0" x="17" y="15.75" width="75" height="76.5"/>
    </clipPath>
  </defs>
  <g class="st2">
    <g>
      <path class="st1" d="M62.93,54c0,.6-.06,1.19-.17,1.78-.12.58-.29,1.15-.52,1.71-.23.55-.5,1.08-.84,1.57-.33.5-.71.96-1.13,1.38-.42.42-.88.8-1.37,1.13-.49.33-1.02.61-1.57.84-.55.23-1.12.4-1.7.52-.58.12-1.17.17-1.77.17s-1.18-.06-1.77-.17c-.58-.12-1.15-.29-1.7-.52-.55-.23-1.07-.51-1.57-.84-.49-.33-.95-.71-1.37-1.13-.42-.42-.8-.88-1.13-1.38-.33-.5-.61-1.02-.84-1.57-.23-.55-.4-1.12-.52-1.71-.12-.59-.17-1.18-.17-1.78s.06-1.19.17-1.78c.12-.58.29-1.15.52-1.71.23-.55.51-1.08.84-1.57.33-.5.71-.96,1.13-1.38.42-.42.88-.8,1.37-1.13.49-.33,1.02-.61,1.57-.84.55-.23,1.12-.4,1.7-.52.58-.12,1.17-.17,1.77-.17s1.18.06,1.77.17c.58.12,1.15.29,1.7.52.55.23,1.07.51,1.57.84.49.33.95.71,1.37,1.13.42.42.8.88,1.13,1.38.33.5.61,1.02.84,1.57.23.55.4,1.12.52,1.71.12.59.17,1.18.17,1.78Z"/>
      <path class="st1" d="M53.87,15.77c-17.72,0-32.61,12.18-36.84,28.67-.04.15-.06.3-.06.45,0,1,.81,1.82,1.81,1.82h15.34c.35,0,.68-.09.98-.29.3-.19.52-.45.66-.78,0,0,.02-.04.03-.07,3.16-6.86,10.07-11.61,18.08-11.61,11,0,19.93,8.96,19.93,20.02s-8.92,20.02-19.92,20.02c-8.01,0-14.92-4.76-18.08-11.61,0-.02-.03-.07-.03-.07-.29-.65-.94-1.07-1.64-1.07h-15.34c-1,0-1.81.81-1.81,1.82,0,.15.02.3.06.45,4.22,16.49,19.12,28.67,36.84,28.67,21.01,0,38.07-17.12,38.07-38.23S74.91,15.76,53.91,15.76h-.04Z"/>
    </g>
  </g>
  <g>
    <g id="font_5_60">
      <path class="st1" d="M110.13,54.51c5.9,0,9.39-2.54,9.39-9.11v-19.98h-4.52v19.63c0,3.67-1.91,4.98-5.3,4.98-2.05,0-4.52-.78-6.28-1.8l-1.52,4.2c1.94,1.17,4.94,2.08,8.23,2.08Z"/>
    </g>
    <g id="font_5_71">
      <path class="st1" d="M140.14,49.99l-9.22-24.57h-7.31v28.63h4.48v-25.07l9.46,25.07h5.15l9.46-25v25h4.52v-28.63h-7.34l-9.22,24.57Z"/>
    </g>
    <g id="font_5_4">
      <path class="st1" d="M190.24,54.05l-12.85-28.63h-5.37l-12.78,28.63h4.73l3.46-7.94h14.62l3.46,7.94h4.73ZM180.29,42.19h-11.16l5.58-12.6,5.58,12.6Z"/>
    </g>
    <g id="font_5_27">
      <path class="st1" d="M111.5,70.28v-1.71h-7.04v-3.45h6.48v-1.66h-6.48v-3.14h6.99v-1.71h-8.82v11.67h8.87Z"/>
    </g>
    <g id="font_5_236">
      <path class="st1" d="M121.75,62.49c-1.19-.35-2.49-.65-4.04-.65-3.07,0-5.01,1.73-5.01,4.29v.03c0,2.58,1.83,4.3,4.91,4.3.75,0,1.64-.13,2.29-.29v3.27h1.86v-10.95ZM117.67,68.8c-2.04,0-3.11-1.07-3.11-2.63v-.03c0-1.55,1.11-2.63,3.14-2.63.76,0,1.54.1,2.19.23v4.78c-.59.14-1.47.29-2.22.29Z"/>
    </g>
    <g id="font_5_253">
      <path class="st1" d="M127.7,70.44c1.18,0,2.91-.22,4.38-.47v-7.82h-1.86v6.46c-.81.13-1.78.24-2.55.24-1.63,0-2.4-.5-2.4-1.89v-4.82h-1.86v5.01c0,2.49,1.57,3.28,4.29,3.28Z"/>
    </g>
    <g id="font_5_186">
      <path class="st1" d="M134.66,61.04c.56,0,.99-.29.99-.89,0-.52-.4-.86-.99-.86s-.98.35-.98.86c0,.6.42.89.98.89ZM135.59,70.28v-8.13h-1.86v8.13h1.86Z"/>
    </g>
    <g id="font_5_234">
      <path class="st1" d="M139.1,73.45v-3.27c.65.16,1.54.29,2.29.29,3.08,0,4.91-1.73,4.91-4.3v-.03c0-2.56-1.96-4.29-5.02-4.29-1.55,0-2.84.3-4.03.65v10.95h1.86ZM141.32,68.8c-.76,0-1.63-.14-2.22-.29v-4.78c.65-.13,1.41-.23,2.17-.23,2.04,0,3.15,1.08,3.15,2.63v.03c0,1.57-1.07,2.63-3.11,2.63Z"/>
    </g>
    <g id="font_5_142">
      <path class="st1" d="M152.13,61.88c-1.32,0-2.68.24-3.61.53l-.39,1.68c1.09-.37,2.45-.63,3.64-.63,1.89,0,2.62.55,2.62,1.71v.32c-.99-.12-1.87-.16-2.73-.16-2.85,0-4.16.91-4.16,2.53h0c0,1.84,1.42,2.63,4.38,2.63,1.3,0,2.95-.16,4.39-.39v-5.12c0-2.23-1.4-3.11-4.13-3.11ZM149.41,67.83c0-.86.88-1.14,2.75-1.14.71,0,1.55.04,2.25.14v1.97c-.65.09-1.45.14-2.25.14-1.93,0-2.75-.33-2.75-1.11h0Z"/>
    </g>
    <g id="font_5_214">
      <path class="st1" d="M159.77,70.28v-6.53c.72-.13,1.55-.24,2.29-.24,1.51,0,2.3.49,2.3,1.89v4.89h1.86v-4.89c0-1.24.56-1.89,2.27-1.89s2.27.65,2.27,1.89v4.89h1.86v-5.11c0-2.39-1.25-3.32-3.94-3.32-1.67,0-2.82.43-3.37,1.48-.53-1.12-1.71-1.48-3.28-1.48-1.12,0-2.66.2-4.12.47v7.96h1.86Z"/>
    </g>
    <g id="font_5_165">
      <path class="st1" d="M183.37,66.39c0-2.94-1.91-4.53-4.65-4.53-2.89,0-4.68,1.84-4.68,4.29v.03c0,2.69,1.99,4.29,4.89,4.29,1.83,0,3.2-.55,4.04-1.05l-.82-1.45c-.73.45-1.83.88-3.17.88-1.68,0-2.78-.88-3.01-2.16h7.38v-.29ZM178.71,63.4c1.53,0,2.52.82,2.73,1.94h-5.43c.29-1.21,1.3-1.94,2.69-1.94Z"/>
    </g>
    <g id="font_5_215">
      <path class="st1" d="M186.68,70.28v-6.53c.79-.13,1.73-.23,2.48-.23,1.63,0,2.42.49,2.42,1.87v4.89h1.86v-5.15c0-2.49-1.48-3.28-4.2-3.28-1.18,0-2.95.22-4.4.47v7.96h1.86Z"/>
    </g>
    <g id="font_5_248">
      <path class="st1" d="M202.13,70.28v-1.73h-2.3c-1.07,0-1.63-.36-1.63-1.48v-3.21h3.91v-1.71h-3.91v-2.61h-1.86v2.61h-1.73v1.71h1.73v3.79c0,1.9.82,2.63,2.71,2.63h3.08Z"/>
    </g>
    <g id="font_5_221">
      <path class="st1" d="M208.43,70.5c3.07,0,5.07-1.78,5.07-4.33v-.03c0-2.53-2-4.29-5.07-4.29s-5.07,1.76-5.07,4.29v.03c0,2.55,2,4.33,5.07,4.33ZM208.43,68.83c-1.96,0-3.2-1.14-3.2-2.66v-.03c0-1.54,1.22-2.62,3.2-2.62s3.2,1.08,3.2,2.62v.03c0,1.53-1.24,2.66-3.2,2.66Z"/>
    </g>
    <g id="font_5_241">
      <path class="st1" d="M218.91,70.47c2.73,0,4.12-.76,4.12-2.49,0-1.41-.89-2.09-2.94-2.5l-1.54-.26c-1.28-.26-1.74-.42-1.74-.98s.66-.81,1.97-.81c.95,0,2.12.14,3.28.53l.63-1.44c-1.22-.43-2.66-.66-3.94-.66-2.56,0-3.84.86-3.84,2.36s.83,2.12,2.94,2.5l1.55.24c1.42.27,1.76.47,1.76,1.04,0,.76-.91.91-2.36.91-.99,0-2.48-.22-3.58-.65l-.55,1.51c1.3.46,2.84.69,4.25.69Z"/>
    </g>
    <g id="font_5_711" data-name="font_5_71">
      <path class="st1" d="M109.37,85.88l-3.76-10.02h-2.98v11.67h1.83v-10.22l3.86,10.22h2.1l3.86-10.19v10.19h1.84v-11.67h-2.99l-3.76,10.02Z"/>
    </g>
    <g id="font_5_166">
      <path class="st1" d="M122.77,76.15l-1.34,2.16h1.4l2.32-2.16h-2.37ZM126.87,83.64c0-2.94-1.91-4.53-4.65-4.53-2.89,0-4.68,1.84-4.68,4.29v.03c0,2.69,1.99,4.29,4.89,4.29,1.83,0,3.2-.55,4.04-1.05l-.82-1.45c-.73.45-1.83.88-3.17.88-1.68,0-2.78-.88-3.01-2.16h7.38v-.29ZM122.21,80.65c1.53,0,2.52.82,2.73,1.94h-5.43c.29-1.21,1.3-1.94,2.69-1.94Z"/>
    </g>
    <g id="font_5_161">
      <path class="st1" d="M133.12,87.75c1.55,0,2.76-.24,4.04-.66v-11.23h-1.86v3.53c-.65-.16-1.54-.29-2.29-.29-3.08,0-4.91,1.73-4.91,4.3v.03c0,2.58,1.94,4.32,5.01,4.32ZM133.12,86.08c-2.03,0-3.14-1.09-3.14-2.65v-.03c0-1.55,1.07-2.63,3.11-2.63.75,0,1.63.14,2.22.29v4.79c-.65.13-1.42.23-2.19.23Z"/>
    </g>
    <g id="font_5_1861" data-name="font_5_186">
      <path class="st1" d="M139.74,78.29c.56,0,.99-.29.99-.89,0-.52-.4-.86-.99-.86s-.98.35-.98.86c0,.6.42.89.98.89ZM140.67,87.53v-8.13h-1.86v8.13h1.86Z"/>
    </g>
    <g id="font_5_155">
      <path class="st1" d="M146.96,87.72c1.19,0,2.56-.29,3.38-.71l-.73-1.45c-.68.3-1.58.53-2.55.53-1.97,0-3.07-1.05-3.07-2.69h0c0-1.63,1.09-2.68,3.07-2.68.99,0,1.89.24,2.53.56l.73-1.47c-.86-.4-2.12-.71-3.37-.71-3.08,0-4.86,1.76-4.86,4.27h0c0,2.56,1.78,4.33,4.86,4.33Z"/>
    </g>
    <g id="font_5_2211" data-name="font_5_221">
      <path class="st1" d="M156.33,87.75c3.07,0,5.07-1.78,5.07-4.33v-.03c0-2.53-2-4.29-5.07-4.29s-5.07,1.76-5.07,4.29v.03c0,2.55,2,4.33,5.07,4.33ZM156.33,86.08c-1.96,0-3.2-1.14-3.2-2.66v-.03c0-1.54,1.22-2.62,3.2-2.62s3.2,1.08,3.2,2.62v.03c0,1.53-1.24,2.66-3.2,2.66Z"/>
    </g>
    <g id="font_5_2411" data-name="font_5_241">
      <path class="st1" d="M166.81,87.72c2.73,0,4.12-.76,4.12-2.49,0-1.41-.89-2.09-2.94-2.5l-1.54-.26c-1.28-.26-1.74-.42-1.74-.98s.66-.81,1.97-.81c.95,0,2.12.14,3.28.53l.63-1.44c-1.22-.43-2.66-.66-3.94-.66-2.56,0-3.84.86-3.84,2.36s.83,2.12,2.94,2.5l1.55.24c1.42.27,1.76.47,1.76,1.04,0,.76-.91.91-2.36.91-.99,0-2.48-.22-3.58-.65l-.55,1.51c1.3.46,2.84.69,4.25.69Z"/>
    </g>
  </g>
</svg>